# xmcd CD database file
#
# Track frame offsets:
#	150
#	14220
#	41747
#	55932
#	80360
#	87782
#	103575
#	135305
#	141647
#	167965
#
# Disc length: 2436 seconds
#
# Revision: 0
# Processed by: cddbd v1.5.2PL0 Copyright (c) Steve Scherf et al.
# Submitted via: CDex 1.70beta2
#
DISCID=8909820a
DTITLE=岡本博文 - Jawango
DYEAR=1998
DGENRE=Jazz
TTITLE0=Obyan Boy
TTITLE1=Ordinary Latin Song
TTITLE2=Hongkong Blues
TTITLE3=Vestido Naranja
TTITLE4=Keith
TTITLE5=Hide&Seek
TTITLE6=Jawango
TTITLE7=Happening Operation
TTITLE8=Dog Day Afternoon
TTITLE9=Prelude
EXTD=YEAR: 1998
EXTT0=
EXTT1=
EXTT2=
EXTT3=
EXTT4=
EXTT5=
EXTT6=
EXTT7=
EXTT8=
EXTT9=
PLAYORDER=
